<svg xmlns="http://www.w3.org/2000/svg" xmlns:xlink="http://www.w3.org/1999/xlink" width="1080" zoomAndPan="magnify" viewBox="0 0 810 809.999993" height="1080" preserveAspectRatio="xMidYMid meet" version="1.0"><defs><clipPath id="93a9181644"><path d="M 49.234375 49.234375 L 760.765625 49.234375 L 760.765625 760.765625 L 49.234375 760.765625 Z M 49.234375 49.234375 " clip-rule="nonzero"/></clipPath><clipPath id="562b63fd0e"><path d="M 405 49.234375 C 208.515625 49.234375 49.234375 208.515625 49.234375 405 C 49.234375 601.484375 208.515625 760.765625 405 760.765625 C 601.484375 760.765625 760.765625 601.484375 760.765625 405 C 760.765625 208.515625 601.484375 49.234375 405 49.234375 Z M 405 49.234375 " clip-rule="nonzero"/></clipPath><clipPath id="6b531b90b3"><path d="M 0.234375 0.234375 L 711.765625 0.234375 L 711.765625 711.765625 L 0.234375 711.765625 Z M 0.234375 0.234375 " clip-rule="nonzero"/></clipPath><clipPath id="af3fafcc39"><path d="M 356 0.234375 C 159.515625 0.234375 0.234375 159.515625 0.234375 356 C 0.234375 552.484375 159.515625 711.765625 356 711.765625 C 552.484375 711.765625 711.765625 552.484375 711.765625 356 C 711.765625 159.515625 552.484375 0.234375 356 0.234375 Z M 356 0.234375 " clip-rule="nonzero"/></clipPath><clipPath id="6dbe1a7af1"><rect x="0" width="712" y="0" height="712"/></clipPath><clipPath id="9c60b6ebd4"><path d="M 280 262.851562 L 530 262.851562 L 530 530 L 280 530 Z M 280 262.851562 " clip-rule="nonzero"/></clipPath><clipPath id="3f6eeb27ff"><path d="M 339 578.910156 L 471 578.910156 L 471 720 L 339 720 Z M 339 578.910156 " clip-rule="nonzero"/></clipPath></defs><g clip-path="url(#93a9181644)"><g clip-path="url(#562b63fd0e)"><g transform="matrix(1, 0, 0, 1, 49, 49)"><g clip-path="url(#6dbe1a7af1)"><g clip-path="url(#6b531b90b3)"><g clip-path="url(#af3fafcc39)"><path fill="#38b6ff" d="M 0.234375 0.234375 L 711.765625 0.234375 L 711.765625 711.765625 L 0.234375 711.765625 Z M 0.234375 0.234375 " fill-opacity="1" fill-rule="nonzero"/></g></g></g></g></g></g><g clip-path="url(#9c60b6ebd4)"><path fill="#ffffff" d="M 405.203125 262.851562 C 395.417969 262.851562 387.4375 270.835938 387.4375 280.621094 L 387.4375 369.460938 C 387.4375 379.246094 395.417969 387.226562 405.203125 387.226562 C 414.988281 387.226562 422.972656 379.246094 422.972656 369.460938 L 422.972656 280.621094 C 422.972656 270.835938 414.988281 262.851562 405.203125 262.851562 Z M 349.472656 295.125 C 347.179688 295.402344 344.960938 296.167969 342.945312 297.347656 C 294.363281 325.457031 270.558594 382.925781 285.0625 437.199219 C 299.636719 491.40625 348.914062 529.300781 404.996094 529.371094 C 461.144531 529.371094 510.5625 491.683594 525.207031 437.546875 C 539.917969 383.339844 516.320312 325.804688 467.808594 297.554688 C 459.339844 292.558594 448.445312 295.402344 443.515625 303.941406 C 441.15625 307.964844 440.460938 312.824219 441.640625 317.40625 C 442.890625 321.988281 445.804688 325.875 449.902344 328.234375 C 484.671875 348.5 501.46875 389.378906 490.988281 428.246094 C 480.4375 467.042969 445.320312 493.902344 405.132812 493.835938 C 364.878906 493.835938 329.828125 466.835938 319.417969 427.96875 C 309.007812 389.101562 325.875 348.222656 360.714844 328.09375 C 369.183594 323.167969 372.097656 312.339844 367.167969 303.871094 C 364.808594 299.777344 360.992188 296.792969 356.410156 295.613281 C 354.191406 294.988281 351.832031 294.847656 349.472656 295.125 Z M 349.472656 295.125 " fill-opacity="1" fill-rule="nonzero"/></g><path fill="#ffffff" d="M 149.589844 214.089844 C 149.589844 248.808594 177.71875 276.933594 212.433594 276.933594 C 244.375 276.863281 271.21875 252.863281 274.789062 221.132812 C 275.171875 217.769531 273.578125 214.472656 270.734375 212.636719 C 267.855469 210.832031 264.179688 210.796875 261.300781 212.601562 C 255.890625 215.929688 249.613281 217.734375 243.265625 217.734375 C 224.121094 217.734375 208.792969 202.402344 208.792969 183.257812 C 208.792969 176.914062 210.597656 170.636719 213.925781 165.226562 C 215.730469 162.347656 215.695312 158.671875 213.890625 155.792969 C 212.050781 152.949219 208.757812 151.351562 205.394531 151.734375 C 173.660156 155.304688 149.660156 182.148438 149.589844 214.089844 Z M 191.035156 183.257812 C 191.035156 212.113281 214.410156 235.488281 243.300781 235.488281 C 252.941406 235.488281 262.410156 232.785156 270.628906 227.6875 L 257.136719 219.15625 C 254.570312 241.976562 235.394531 259.140625 212.433594 259.175781 C 187.429688 259.175781 167.347656 239.097656 167.347656 214.089844 C 167.382812 191.132812 184.550781 171.953125 207.371094 169.386719 L 198.839844 155.894531 C 193.742188 164.117188 191.035156 173.582031 191.035156 183.257812 Z M 191.035156 183.257812 " fill-opacity="1" fill-rule="nonzero"/><g clip-path="url(#3f6eeb27ff)"><path fill="#ffffff" d="M 404.996094 578.910156 C 399.832031 578.910156 395.617188 583.125 395.617188 588.292969 L 395.617188 635.191406 C 395.617188 640.359375 399.832031 644.574219 404.996094 644.574219 C 410.164062 644.574219 414.378906 640.359375 414.378906 635.191406 L 414.378906 588.292969 C 414.378906 583.125 410.164062 578.910156 404.996094 578.910156 Z M 339.335938 588.292969 L 358.574219 607.527344 C 338.714844 627.386719 333.691406 657.761719 346.078125 682.9375 C 358.5 708.109375 385.613281 722.691406 413.425781 719.0625 C 441.273438 715.4375 463.769531 694.441406 469.339844 666.960938 C 474.90625 639.441406 462.304688 611.339844 438.046875 597.230469 C 433.578125 594.59375 427.824219 596.132812 425.222656 600.601562 C 422.621094 605.074219 424.125 610.824219 428.59375 613.425781 C 445.960938 623.539062 454.9375 643.511719 450.945312 663.257812 C 446.988281 682.972656 430.976562 697.886719 411.042969 700.488281 C 391.074219 703.050781 371.800781 692.71875 362.933594 674.65625 C 354.066406 656.589844 357.621094 635.007812 371.835938 620.792969 L 386.238281 635.191406 L 386.238281 597.636719 C 386.238281 592.761719 382.023438 588.292969 376.855469 588.292969 Z M 339.335938 588.292969 " fill-opacity="1" fill-rule="nonzero"/></g><path fill="#ffffff" d="M 643.367188 191.914062 L 643.367188 191.953125 C 645.964844 191.953125 648.445312 192.984375 650.28125 194.78125 L 669.832031 214.332031 C 673.652344 218.152344 673.652344 224.339844 669.832031 228.160156 L 650.28125 247.714844 C 648.445312 249.507812 645.964844 250.539062 643.367188 250.5 L 643.367188 250.578125 L 633.589844 250.578125 L 633.589844 231.023438 L 584.703125 231.023438 C 579.320312 231.023438 574.925781 226.632812 574.925781 221.246094 C 574.925781 215.859375 579.320312 211.46875 584.703125 211.46875 L 633.589844 211.46875 L 633.589844 191.914062 Z M 643.367188 191.914062 " fill-opacity="1" fill-rule="nonzero"/><path fill="#ffffff" d="M 606.015625 153.761719 C 582.605469 149.789062 558.007812 158.191406 542.007812 177.210938 C 520.734375 202.609375 520.734375 239.84375 542.007812 265.203125 C 563.316406 290.601562 599.980469 297.058594 628.664062 280.480469 C 630.917969 279.183594 632.558594 277.042969 633.246094 274.5625 C 633.894531 272.042969 633.550781 269.367188 632.253906 267.113281 C 629.542969 262.457031 623.582031 260.851562 618.886719 263.5625 C 598.300781 275.441406 572.292969 270.894531 557.015625 252.640625 C 541.738281 234.421875 541.738281 208.03125 557.015625 189.777344 C 572.292969 171.558594 598.300781 166.976562 618.886719 178.890625 C 623.582031 181.566406 629.542969 180 632.253906 175.300781 C 633.550781 173.085938 633.894531 170.414062 633.246094 167.890625 C 632.558594 165.371094 630.917969 163.234375 628.664062 161.933594 C 621.519531 157.808594 613.84375 155.097656 606.015625 153.761719 Z M 606.015625 153.761719 " fill-opacity="1" fill-rule="nonzero"/></svg>